<svg xmlns="http://www.w3.org/2000/svg" width="100" height="100" viewBox="0 0 100 100" fill="none"><path d="M91.2801 35.8901C86.2554 46.9283 80.0067 57.3698 72.6502 67.0177L60.634 79.2484C54.8968 84.1955 46.3647 84.0954 40.7443 79.0014L39.7888 78.1354L34.3209 73.1796C29.7638 69.0493 25.6197 64.4859 21.9464 59.5531C18.0149 54.2736 14.6437 48.5991 11.8875 42.6214L8.78384 35.8901H91.2801Z" stroke="black" stroke-width="5"></path><path d="M63.2195 56.7134C63.2195 63.7459 57.3171 69.4756 50 69.4756C42.683 69.4756 36.7805 63.7459 36.7805 56.7134C36.7805 49.6808 42.683 43.9512 50 43.9512C57.3171 43.9512 63.2195 49.6808 63.2195 56.7134Z" fill="black" stroke="black"></path><path d="M55.0974 56.7134C55.0974 59.6129 52.7469 61.9634 49.8474 61.9634C46.9479 61.9634 44.5974 59.6129 44.5974 56.7134C44.5974 53.8139 46.9479 51.4634 49.8474 51.4634C52.7469 51.4634 55.0974 53.8139 55.0974 56.7134Z" stroke="white" stroke-width="2"></path><path d="M19.5122 11.5H80.4878C89.0341 11.5 96.1085 17.8019 97.3176 26.0122H2.6824C3.89153 17.8019 10.9659 11.5 19.5122 11.5Z" stroke="black" stroke-width="5"></path><rect x="12.1243" y="15.0977" width="1.21951" height="7.31707" transform="rotate(26.6559 12.1243 15.0977)" fill="black"></rect><rect x="17.3782" y="15.0977" width="1.21951" height="7.31707" transform="rotate(26.6559 17.3782 15.0977)" fill="black"></rect><rect x="22.561" y="15.0977" width="1.21951" height="7.31707" transform="rotate(26.6559 22.561 15.0977)" fill="black"></rect><rect x="27.7439" y="15.0977" width="1.21951" height="7.31707" transform="rotate(26.6559 27.7439 15.0977)" fill="black"></rect><rect x="32.9268" y="15.0977" width="1.21951" height="7.31707" transform="rotate(26.6559 32.9268 15.0977)" fill="black"></rect></svg>