<svg xmlns="http://www.w3.org/2000/svg" width="235" height="205" fill="none"><path fill="#635E5E" d="M24.38 203 124.761 56h24.99L49.371 203H24.38Zm12.81-67.62c-7.14 0-13.44-1.61-18.9-4.83-5.46-3.36-9.8-8.05-13.02-14.07C2.19 110.32.65 103.11.65 94.85s1.54-15.4 4.62-21.42c3.22-6.02 7.56-10.71 13.02-14.07 5.46-3.36 11.76-5.04 18.9-5.04 7.14 0 13.44 1.68 18.9 5.04 5.46 3.36 9.73 8.05 12.81 14.07s4.62 13.16 4.62 21.42c0 8.26-1.54 15.47-4.62 21.63-3.08 6.02-7.35 10.71-12.81 14.07-5.46 3.22-11.76 4.83-18.9 4.83Zm0-17.22c4.62 0 8.33-1.89 11.13-5.67 2.8-3.92 4.2-9.8 4.2-17.64s-1.4-13.65-4.2-17.43c-2.8-3.92-6.51-5.88-11.13-5.88-4.48 0-8.19 1.96-11.13 5.88-2.8 3.78-4.2 9.59-4.2 17.43 0 7.7 1.4 13.51 4.2 17.43 2.94 3.92 6.65 5.88 11.13 5.88Zm99.751 86.52c-7 0-13.3-1.61-18.9-4.83-5.46-3.36-9.73-8.05-12.81-14.07-3.08-6.16-4.62-13.37-4.62-21.63s1.54-15.4 4.62-21.42c3.08-6.02 7.35-10.71 12.81-14.07 5.6-3.36 11.9-5.04 18.9-5.04 7.28 0 13.65 1.68 19.11 5.04 5.46 3.36 9.73 8.05 12.81 14.07s4.62 13.16 4.62 21.42c0 8.26-1.54 15.47-4.62 21.63-3.08 6.02-7.35 10.71-12.81 14.07-5.46 3.22-11.83 4.83-19.11 4.83Zm0-17.22c4.62 0 8.33-1.89 11.13-5.67 2.8-3.92 4.2-9.8 4.2-17.64 0-7.7-1.4-13.51-4.2-17.43-2.8-3.92-6.51-5.88-11.13-5.88-4.48 0-8.19 1.96-11.13 5.88-2.8 3.78-4.2 9.59-4.2 17.43s1.4 13.72 4.2 17.64c2.94 3.78 6.65 5.67 11.13 5.67ZM206.53 198.51a3.499 3.499 0 0 0 4.949 0l22.273-22.275a3.5 3.5 0 1 0-4.95-4.95l-19.798 19.8-19.8-19.798a3.5 3.5 0 1 0-4.949 4.95l22.275 22.273ZM205.5 101l.004 95.035h7L212.5 101h-7Z"></path></svg>